<?xml version="1.0" encoding="UTF-8"?>
<svg xmlns="http://www.w3.org/2000/svg" xmlns:xlink="http://www.w3.org/1999/xlink" width="30pt" height="24pt" viewBox="0 0 30 24" version="1.1">
<g id="surface1">
<path style=" stroke:none;fill-rule:nonzero;fill:#616161;fill-opacity:1;" d="M 18.75 4.5 C 19.992188 4.5 21 3.492188 21 2.25 C 21 1.007812 19.992188 0 18.75 0 C 17.507812 0 16.5 1.007812 16.5 2.25 C 16.5 3.492188 17.507812 4.5 18.75 4.5 Z M 18.5625 10.171875 C 18.828125 10.386719 19.160156 10.5 19.5 10.5 L 22.5 10.5 C 23.328125 10.5 24 9.828125 24 9 C 24 8.171875 23.328125 7.5 22.5 7.5 L 20.027344 7.5 L 16.6875 4.828125 C 16.125 4.375 15.320312 4.390625 14.773438 4.859375 L 9.523438 9.359375 C 9.167969 9.664062 8.976562 10.121094 9.003906 10.589844 C 9.03125 11.058594 9.277344 11.488281 9.667969 11.746094 L 13.5 14.300781 L 13.5 19.5 C 13.5 20.328125 14.171875 21 15 21 C 15.828125 21 16.5 20.328125 16.5 19.5 L 16.5 13.5 C 16.5 13 16.25 12.53125 15.832031 12.253906 L 13.894531 10.960938 L 16.625 8.621094 Z M 24 12 C 20.6875 12 18 14.6875 18 18 C 18 21.3125 20.6875 24 24 24 C 27.3125 24 30 21.3125 30 18 C 30 14.6875 27.3125 12 24 12 Z M 24 21 C 22.34375 21 21 19.65625 21 18 C 21 16.34375 22.34375 15 24 15 C 25.65625 15 27 16.34375 27 18 C 27 19.65625 25.65625 21 24 21 Z M 6 12 C 2.6875 12 0 14.6875 0 18 C 0 21.3125 2.6875 24 6 24 C 9.3125 24 12 21.3125 12 18 C 12 14.6875 9.3125 12 6 12 Z M 6 21 C 4.34375 21 3 19.65625 3 18 C 3 16.34375 4.34375 15 6 15 C 7.65625 15 9 16.34375 9 18 C 9 19.65625 7.65625 21 6 21 Z M 6 21 "/>
</g>
</svg>
