<?xml version="1.0" encoding="UTF-8"?>
<svg xmlns="http://www.w3.org/2000/svg" xmlns:xlink="http://www.w3.org/1999/xlink" width="37pt" height="30pt" viewBox="0 0 37 30" version="1.1">
<g id="surface1">
<path style=" stroke:none;fill-rule:nonzero;fill:rgb(0%,0%,0%);fill-opacity:1;" d="M 35.980469 8.976562 L 19.851562 3.953125 C 18.972656 3.679688 18.027344 3.679688 17.148438 3.953125 L 1.019531 8.976562 C -0.339844 9.398438 -0.339844 11.222656 1.019531 11.648438 L 3.832031 12.523438 C 3.214844 13.296875 2.835938 14.238281 2.796875 15.269531 C 2.242188 15.59375 1.851562 16.179688 1.851562 16.875 C 1.851562 17.507812 2.179688 18.039062 2.652344 18.378906 L 1.175781 25.109375 C 1.046875 25.695312 1.488281 26.25 2.078125 26.25 L 5.320312 26.25 C 5.914062 26.25 6.351562 25.695312 6.226562 25.109375 L 4.75 18.378906 C 5.222656 18.039062 5.550781 17.507812 5.550781 16.875 C 5.550781 16.195312 5.175781 15.628906 4.644531 15.300781 C 4.6875 14.421875 5.132812 13.640625 5.839844 13.148438 L 17.148438 16.671875 C 17.671875 16.832031 18.675781 17.035156 19.851562 16.671875 L 35.980469 11.648438 C 37.339844 11.222656 37.339844 9.402344 35.980469 8.976562 Z M 20.394531 18.460938 C 18.746094 18.976562 17.339844 18.691406 16.605469 18.460938 L 8.21875 15.851562 L 7.398438 22.5 C 7.398438 24.570312 12.371094 26.25 18.5 26.25 C 24.628906 26.25 29.601562 24.570312 29.601562 22.5 L 28.78125 15.851562 Z M 20.394531 18.460938 "/>
</g>
</svg>
