<?xml version="1.0" encoding="UTF-8"?>
<svg xmlns="http://www.w3.org/2000/svg" xmlns:xlink="http://www.w3.org/1999/xlink" width="30pt" height="30pt" viewBox="0 0 30 30" version="1.1">
<g id="surface1">
<path style=" stroke:none;fill-rule:nonzero;fill:#FFB300;fill-opacity:1;" d="M 29.171875 8.328125 L 26.472656 11.027344 C 26.195312 11.300781 25.75 11.300781 25.476562 11.027344 L 18.972656 4.523438 C 18.695312 4.246094 18.695312 3.800781 18.972656 3.527344 L 21.671875 0.824219 C 22.769531 -0.269531 24.550781 -0.269531 25.652344 0.824219 L 29.171875 4.347656 C 30.273438 5.441406 30.273438 7.222656 29.171875 8.328125 Z M 16.652344 5.847656 L 1.265625 21.234375 L 0.0234375 28.351562 C -0.148438 29.3125 0.691406 30.148438 1.652344 29.984375 L 8.773438 28.734375 L 24.15625 13.347656 C 24.433594 13.070312 24.433594 12.625 24.15625 12.351562 L 17.65625 5.847656 C 17.375 5.570312 16.929688 5.570312 16.652344 5.847656 Z M 7.273438 19.914062 C 6.949219 19.59375 6.949219 19.078125 7.273438 18.753906 L 16.296875 9.730469 C 16.617188 9.410156 17.132812 9.410156 17.457031 9.730469 C 17.777344 10.054688 17.777344 10.570312 17.457031 10.890625 L 8.433594 19.914062 C 8.109375 20.238281 7.59375 20.238281 7.273438 19.914062 Z M 5.15625 24.84375 L 7.96875 24.84375 L 7.96875 26.96875 L 4.1875 27.632812 L 2.367188 25.8125 L 3.03125 22.03125 L 5.15625 22.03125 Z M 5.15625 24.84375 "/>
</g>
</svg>
