<?xml version="1.0" encoding="UTF-8"?>
<svg xmlns="http://www.w3.org/2000/svg" xmlns:xlink="http://www.w3.org/1999/xlink" width="30pt" height="24pt" viewBox="0 0 30 24" version="1.1">
<g id="surface1">
<path style=" stroke:none;fill-rule:nonzero;fill:rgb(0%,0%,0%);fill-opacity:1;" d="M 8.886719 14.558594 C 9.054688 14.710938 9.605469 15 10.5 15 C 11.394531 15 11.945312 14.710938 12.113281 14.558594 C 12.863281 13.867188 13.730469 13.5 14.617188 13.5 L 15.382812 13.5 C 16.269531 13.5 17.136719 13.867188 17.886719 14.558594 C 18.054688 14.710938 18.605469 15 19.5 15 C 20.394531 15 20.945312 14.710938 21.113281 14.558594 C 21.808594 13.914062 22.605469 13.570312 23.425781 13.519531 L 18.136719 9.742188 L 18.980469 9.140625 C 19.152344 9.019531 19.371094 8.972656 19.574219 9.015625 L 24.277344 10.027344 C 25.492188 10.285156 26.6875 9.511719 26.949219 8.296875 C 27.210938 7.082031 26.4375 5.886719 25.21875 5.625 L 20.515625 4.617188 C 19.074219 4.308594 17.5625 4.621094 16.363281 5.476562 L 12.613281 8.15625 C 12.128906 8.503906 11.707031 8.929688 11.363281 9.421875 L 8.144531 14.015625 C 8.402344 14.167969 8.652344 14.339844 8.886719 14.558594 Z M 29.25 16.5 L 28.5 16.5 C 27.28125 16.5 26.351562 16.105469 25.871094 15.660156 C 25.453125 15.277344 24.949219 15 24.382812 15 L 23.617188 15 C 23.050781 15 22.546875 15.277344 22.128906 15.660156 C 21.648438 16.105469 20.71875 16.5 19.5 16.5 C 18.28125 16.5 17.351562 16.105469 16.871094 15.660156 C 16.453125 15.277344 15.949219 15 15.382812 15 L 14.617188 15 C 14.050781 15 13.546875 15.277344 13.128906 15.660156 C 12.648438 16.105469 11.71875 16.5 10.5 16.5 C 9.28125 16.5 8.351562 16.105469 7.871094 15.660156 C 7.453125 15.277344 6.949219 15 6.382812 15 L 5.617188 15 C 5.050781 15 4.546875 15.277344 4.128906 15.660156 C 3.648438 16.105469 2.71875 16.5 1.5 16.5 L 0.75 16.5 C 0.335938 16.5 0 16.835938 0 17.25 L 0 18.75 C 0 19.164062 0.335938 19.5 0.75 19.5 L 1.5 19.5 C 3.308594 19.5 4.910156 18.929688 6 18.007812 C 7.089844 18.929688 8.691406 19.5 10.5 19.5 C 12.308594 19.5 13.910156 18.929688 15 18.007812 C 16.089844 18.929688 17.691406 19.5 19.5 19.5 C 21.308594 19.5 22.910156 18.929688 24 18.007812 C 25.089844 18.929688 26.691406 19.5 28.5 19.5 L 29.25 19.5 C 29.664062 19.5 30 19.164062 30 18.75 L 30 17.25 C 30 16.835938 29.664062 16.5 29.25 16.5 Z M 5.25 12 C 7.320312 12 9 10.320312 9 8.25 C 9 6.179688 7.320312 4.5 5.25 4.5 C 3.179688 4.5 1.5 6.179688 1.5 8.25 C 1.5 10.320312 3.179688 12 5.25 12 Z M 5.25 12 "/>
</g>
</svg>
