<?xml version="1.0" encoding="UTF-8"?>
<svg xmlns="http://www.w3.org/2000/svg" xmlns:xlink="http://www.w3.org/1999/xlink" width="30pt" height="30pt" viewBox="0 0 30 30" version="1.1">
<g id="surface1">
<path style=" stroke:none;fill-rule:nonzero;fill:rgb(0%,0%,0%);fill-opacity:1;" d="M 29.074219 17.375 C 30.921875 12.8125 30 7.394531 26.308594 3.695312 C 21.390625 -1.230469 13.417969 -1.230469 8.5 3.695312 L 5.21875 6.984375 L 17.613281 19.375 C 20.316406 15.738281 25.320312 14.839844 29.074219 17.375 Z M 16.304688 22.042969 L 3.390625 9.132812 C 1.792969 11.789062 2.121094 15.285156 4.40625 17.578125 L 6.429688 19.605469 L 0.390625 24.84375 C -0.109375 25.28125 -0.140625 26.054688 0.335938 26.53125 L 3.460938 29.664062 C 3.929688 30.140625 4.703125 30.109375 5.144531 29.609375 L 10.375 23.554688 L 12.46875 25.648438 C 13.625 26.800781 15.082031 27.433594 16.585938 27.597656 C 16.171875 26.601562 15.945312 25.511719 15.945312 24.367188 C 15.9375 23.558594 16.089844 22.789062 16.304688 22.042969 Z M 24.375 18.75 C 21.269531 18.75 18.75 21.269531 18.75 24.375 C 18.75 27.480469 21.269531 30 24.375 30 C 27.480469 30 30 27.480469 30 24.375 C 30 21.269531 27.480469 18.75 24.375 18.75 Z M 24.375 18.75 "/>
</g>
</svg>
