<?xml version="1.0" encoding="UTF-8"?>
<svg xmlns="http://www.w3.org/2000/svg" xmlns:xlink="http://www.w3.org/1999/xlink" width="30pt" height="30pt" viewBox="0 0 30 30" version="1.1">
<g id="surface1">
<path style=" stroke:none;fill-rule:nonzero;fill:rgb(0%,0%,0%);fill-opacity:1;" d="M 18.75 19.6875 C 18.75 20.207031 18.332031 20.625 17.8125 20.625 L 12.1875 20.625 C 11.667969 20.625 11.25 20.207031 11.25 19.6875 L 11.25 16.875 L 0 16.875 L 0 25.3125 C 0 26.8125 1.3125 28.125 2.8125 28.125 L 27.1875 28.125 C 28.6875 28.125 30 26.8125 30 25.3125 L 30 16.875 L 18.75 16.875 Z M 27.1875 7.5 L 22.5 7.5 L 22.5 4.6875 C 22.5 3.1875 21.1875 1.875 19.6875 1.875 L 10.3125 1.875 C 8.8125 1.875 7.5 3.1875 7.5 4.6875 L 7.5 7.5 L 2.8125 7.5 C 1.3125 7.5 0 8.8125 0 10.3125 L 0 15 L 30 15 L 30 10.3125 C 30 8.8125 28.6875 7.5 27.1875 7.5 Z M 18.75 7.5 L 11.25 7.5 L 11.25 5.625 L 18.75 5.625 Z M 18.75 7.5 "/>
</g>
</svg>
